<?xml version="1.0" encoding="UTF-8" standalone="no"?>
<!-- Created with Inkscape (http://www.inkscape.org/) -->

<svg
   xmlns:dc="http://purl.org/dc/elements/1.1/"
   xmlns:cc="http://creativecommons.org/ns#"
   xmlns:rdf="http://www.w3.org/1999/02/22-rdf-syntax-ns#"
   xmlns:svg="http://www.w3.org/2000/svg"
   xmlns="http://www.w3.org/2000/svg"
   xmlns:sodipodi="http://sodipodi.sourceforge.net/DTD/sodipodi-0.dtd"
   xmlns:inkscape="http://www.inkscape.org/namespaces/inkscape"
   width="500mm"
   height="500mm"
   viewBox="0 0 500 500"
   version="1.1"
   id="svg8"
   inkscape:version="0.92.1 r15371"
   sodipodi:docname="mermaid_starfish_ravie.svg">
  <defs
     id="defs2">
    <inkscape:path-effect
       effect="spiro"
       id="path-effect11755"
       is_visible="true" />
    <inkscape:path-effect
       effect="taper_stroke"
       id="path-effect12045"
       is_visible="true"
       stroke_width="0.26458332"
       attach_start="0.031794078"
       end_offset="0.65021"
       smoothing="0.5"
       jointype="extrapolated"
       miter_limit="100" />
    <inkscape:path-effect
       miter_limit="100"
       jointype="extrapolated"
       smoothing="0.5"
       end_offset="0.65021"
       attach_start="0.031794078"
       stroke_width="0.26458332"
       is_visible="true"
       id="path-effect12049"
       effect="taper_stroke" />
    <inkscape:path-effect
       miter_limit="100"
       jointype="extrapolated"
       smoothing="0.5"
       end_offset="0.65021"
       attach_start="0.031794078"
       stroke_width="0.26458332"
       is_visible="true"
       id="path-effect12053"
       effect="taper_stroke" />
    <inkscape:path-effect
       effect="taper_stroke"
       id="path-effect12057"
       is_visible="true"
       stroke_width="0.26458332"
       attach_start="0.031794078"
       end_offset="0.65021"
       smoothing="0.5"
       jointype="extrapolated"
       miter_limit="100" />
  </defs>
  <sodipodi:namedview
     id="base"
     pagecolor="#ffffff"
     bordercolor="#666666"
     borderopacity="1.0"
     inkscape:pageopacity="0.0"
     inkscape:pageshadow="2"
     inkscape:zoom="0.24748737"
     inkscape:cx="1038.9445"
     inkscape:cy="956.14784"
     inkscape:document-units="mm"
     inkscape:current-layer="g5687"
     showgrid="false"
     inkscape:window-width="1366"
     inkscape:window-height="715"
     inkscape:window-x="-8"
     inkscape:window-y="-8"
     inkscape:window-maximized="1" />
  <metadata
     id="metadata5">
    <rdf:RDF>
      <cc:Work
         rdf:about="">
        <dc:format>image/svg+xml</dc:format>
        <dc:type
           rdf:resource="http://purl.org/dc/dcmitype/StillImage" />
        <dc:title />
      </cc:Work>
    </rdf:RDF>
  </metadata>
  <g
     inkscape:label="Layer 1"
     inkscape:groupmode="layer"
     id="layer1"
     transform="translate(0,203)">
    <g
       transform="matrix(8.6503832,0,0,8.6503832,-314.38222,980.80987)"
       id="g5687">
      <g
         id="g4493"
         transform="matrix(1.0823446,0,0,1.0823446,-6.1045735,11.742513)">
        <path
           inkscape:connector-curvature="0"
           id="path5539"
           transform="matrix(0.03058631,0,0,0.03058631,36.343155,-136.85057)"
           d="m 1302.1875,82.402344 c -2.2074,0.760737 -4.527,1.581221 -7.084,2.513672 -34.5434,12.598764 -63.6752,38.353194 -89.7988,79.423824 -28.9819,45.56252 -68.5262,82.34149 -111.459,103.6543 -33.7617,16.76046 -36.3483,17.45622 -66.4141,17.43555 -36.69385,-0.0259 -52.83907,-6.31284 -68.30855,-26.59375 -7.90109,-10.35927 -10.38747,-18.11318 -11.52344,-35.95313 -1.36105,-21.36281 -0.77427,-23.40277 9.61328,-33.79101 8.55869,-8.55878 14.20411,-11.03214 24.98828,-10.91407 18.79823,0.19637 37.28253,10.70453 45.27933,25.71485 l 6.5722,12.36719 0.1524,-10.44141 c 0.32,-21.94611 -42.49895,-49.83941 -76.06252,-49.55274 -13.78456,0.13063 -36.97738,11.71796 -50.55078,25.29102 -25.99596,25.9963 -39.82187,73.46871 -30.03907,103.11133 2.45507,7.43535 7.14375,15.13898 13.17774,22.23437 7.98318,8.4407 17.78379,15.6004 27.84375,21.71094 1.64842,0.99064 3.28699,1.93351 4.93359,2.85547 4.52173,2.05974 7.47437,3.56786 9.02149,4.73047 19.77936,9.67614 38.8834,14.65991 54.41992,17.11523 18.84238,2.9785 30.90238,2.4336 30.90238,2.4336 0,0 -11.166,4.47833 -31.10551,6.55468 -102.9495,16.33418 -183.73033,44.36136 -216.63086,142.27539 -5.07293,15.64457 -13.4696,35.00546 -18.66796,43.01563 -50.6166,77.99168 -156.35312,140.4787 -229.79297,135.80273 -20.13368,-1.28155 -24.72002,-2.92359 -32.10157,-11.5039 -11.17958,-12.99703 -11.75691,-40.15967 -1.2832,-60.68946 28.79237,-56.4376 146.5162,-80.06766 162.68359,-32.6582 l 4.3418,12.74024 0.18555,-13.90625 c 0.22231,-14.92832 -4.77727,-27.11617 -14.03906,-34.22852 -26.87112,-15.48695 -59.91619,-20.17872 -88.07422,-10.30664 -86.77494,28.61798 -144.04855,87.50684 -125.70117,198.19922 2.92383,34.87471 39.43162,62.55284 85.59179,76.95703 29.82324,9.58307 80.75498,21.76172 122.10157,21.76172 28.71001,-2.22652 115.10589,27.69495 118.02929,28.21484 29.23397,5.68694 39.08198,1.22536 65.67188,-6.96094 26.15331,-7.41017 54.71798,-27.78798 98.44922,-70.23437 24.85151,-24.12159 44.24149,-41.20229 43.08398,-37.96289 -1.15837,3.24009 -4.1814,28.3817 -6.72461,55.87305 -0.44809,44.00891 -22.36631,49.87363 22.23438,158.93359 l 0.0176,-24.78516 c 0,-14.86317 2.19584,-28.97285 5.45703,-35.22656 -0.87619,-36.82727 21.01125,-72.36847 23.58595,-93.09375 21.7633,-97.70486 51.9502,-134.63173 163.9004,-200.54687 66.2451,-39.00501 90.1533,-58.04467 115.7148,-92.12891 l 7.7051,-10.27344 -2.0957,13.9043 c -2.7182,17.98553 -14.7236,46.50266 -22.4356,53.28906 -3.3191,2.91959 -15.0563,7.20613 -26.0703,9.51172 -26.2937,5.50407 -44.363,17.83402 -51.8183,35.32813 -17.3025,40.60187 -66.3025,150.04128 -82.3477,183.93945 -23.8014,58.33126 -58.2271,112.33982 -87.9219,162.29492 -7.8996,10.52821 -27.45894,55.28791 -40.17768,74.01761 -13.90904,20.482 -27.85953,32.5742 -37.5586,32.5742 -2.84113,0 -11.38369,-6.9636 -18.99023,-15.4746 -21.19629,-23.7158 -29.66837,-28.1301 -54.38477,-28.4024 -12.01512,-0.1306 -30.03049,-1.6112 -40.04297,-3.2773 -10.01264,-1.6675 -18.76227,-2.506 -19.44531,-1.875 -4.53885,4.2113 6.20951,17.7521 20.59571,25.9512 18.61112,10.6073 33.43554,22.6829 33.43554,27.2343 0,1.5922 -2.44799,1.949 -5.45703,0.795 -6.85067,-2.6287 -23.66992,1.3795 -23.66992,5.6425 0,1.7459 3.8284,4.1329 8.49805,5.3047 4.66982,1.1738 19.63902,10.369 33.26562,20.4278 31.18593,23.0211 42.22624,23.7285 79.39063,5.1015 68.75966,-34.4628 110.94736,-71.1712 142.24216,-123.75779 24.0133,-51.50075 84.6101,-175.68951 119.5508,-222.20703 19.1958,-25.2855 26.4894,-26.76254 36.3418,-7.34961 11.3649,22.39368 26.6102,43.64956 52.9492,73.84961 8.724,8.37962 24.8476,35.65432 29.0781,46.41211 10.0367,24.72513 -26.8248,76.45192 -97.0469,117.79297 -25.2166,14.76554 -43.6694,29.36764 -67.4804,53.43944 -54.3414,54.9373 -81.3182,108.8665 -98.5489,196.9824 -29.6675,151.7193 -39.1137,189.2389 -57.9511,230.0117 -28.01868,60.6453 -63.06004,95.424 -119.11133,118.2344 -64.0694,26.0721 -131.62889,19.544 -169.81445,-16.4062 -18.48319,-17.401 -26.99657,-36.9642 -28.92578,-66.5 -1.97246,-30.2002 3.55164,-49.7193 32.50586,-114.9375 55.61599,-125.2731 66.79335,-163.9776 66.56836,-230.502 -0.14706,-40.1944 -1.44902,-50.8966 -8.6836,-70.9941 -4.68634,-13.0167 -9.69065,-24.495 -11.11718,-25.4961 -1.4255,-1.0037 -5.36222,-7.2388 -8.75196,-13.8535 -6.82861,-13.3253 -44.44729,-52.3852 -56.83593,-59.01565 -7.61052,-4.07269 -7.80275,-3.75921 -4.83204,7.92385 1.70041,6.6843 2.94811,22.9387 2.75391,36.123 -0.28114,19.0553 -2.49975,27.8876 -10.7793,43.0996 -10.96081,20.1388 -40.49153,49.548 -65.21484,64.9453 -40.53872,25.2464 -82.33813,81.9351 -93.9043,127.3399 l -4.84961,19.041 -6.41992,-24.498 C 471.55047,1119.8825 307.9404,1041.6621 189.57815,1072.7148 c 55.10044,72.3942 67.54865,125.2921 87.43165,238.9844 0.026,10.6047 11.28378,62.908 18.51757,86.0645 14.9893,47.9849 49.35437,96.9236 87.6875,124.873 43.82622,31.9546 119.67143,56.2891 213.16797,68.3926 20.40556,2.6414 36.07939,6.6287 40.07422,10.2051 60.78261,54.4126 154.4929,97.1582 239.52539,109.2773 54.95243,7.8323 146.82755,2.8512 202.06635,-10.9648 127.7104,-31.9416 247.9329,-97.5552 328.7832,-179.4453 49.5464,-50.1839 84.1594,-105.7241 106.9121,-171.5039 24.2702,-70.1685 29.8565,-179.5835 13.6016,-266.4043 -2.027,-10.8238 -0.1772,-9.6109 30.0391,19.5312 17.7145,17.0851 37.1273,34.159 43.1347,37.9297 14.8174,9.3019 32.6076,8.5745 55.8887,-2.2637 10.7121,-4.9872 25.8626,-9.0722 33.6738,-9.0722 18.2365,0 19.1546,-8.6517 1.5879,-15.0039 -17.1207,-6.1907 -11.7365,-11.6851 19.0235,-19.4122 44.9763,-11.2972 44.9678,-19.6175 -0.053,-29.1113 -49.709,-10.4861 -59.0725,-9.7566 -83.5293,6.5059 -16.6772,11.0896 -22.1186,13.0606 -27.709,10.0683 -19.9977,-10.7024 -35.2004,-58.4077 -49.5019,-155.30075 -2.9706,-20.12408 -9.8144,-47.96773 -15.207,-61.88672 -8.4033,-21.68815 -9.6974,-30.00342 -9.0039,-58.08593 0.6833,-27.67223 2.0914,-34.46742 9.0722,-43.69141 14.7002,-24.0068 16.9159,-90.36998 -10.2226,-112.75977 -11.6146,-7.17834 -14.2775,-24.36997 -22.7735,-52.22265 -5.291,-17.34731 -11.8834,-34.99467 -14.6484,-39.21485 -7.9481,-12.13025 -29.6494,-16.67847 -66.3984,-13.90429 -17.83,1.34366 -36.6791,1.36955 -41.9004,0.0684 -8.9767,-2.25265 -9.4961,-3.62062 -9.4961,-25.35938 0,-12.64452 1.0264,-24.02022 2.2812,-25.27539 1.2548,-1.25543 6.6971,-0.006 12.0977,2.78711 18.726,9.68341 80.1388,-5.61156 95.0527,-20.74609 21.4455,-21.76333 13.4167,-48.61131 19.6152,-84.15625 3.0488,-17.48139 8.247,-35.89963 9.1914,-38.60547 0.6557,-1.87964 0.7552,-5.17732 2.4161,-6.25195 6.7932,-4.39777 23.4263,-7.97149 36.0879,-16.84375 60.3067,-42.25808 73.4768,-85.41272 56.3632,-130.9043 -13.0915,-34.80153 -50.9202,-65.42008 -91.1172,-73.76563 -7.0088,-1.4549 -19.2927,-5.56592 -27.3027,-9.12304 -8.0099,-3.55713 -24.3931,-9.30394 -36.4082,-12.77344 -3.9491,-1.14025 -8.6136,-2.6743 -13.4434,-4.373048 -13.1728,11.982798 -25.8063,24.140378 -25.7773,34.755858 0.069,24.54758 67.8703,60.29101 53.4961,80.18946 -14.3743,19.89844 -69.3507,-27.68694 -92.6758,-20.03711 -23.3287,7.63871 -52.9576,74.03566 -76.3242,66.51367 -23.3666,-7.52167 15.7307,-73.14324 1.248,-92.96289 -14.4829,-19.81965 -69.9015,26.34576 -69.9687,1.79687 -3.4569,-24.884 28.3689,-57.51651 72.8027,-74.443358 1.2489,-0.442413 3.0074,-5.283818 5.2305,-12.386718 z m 264.9629,105.962886 c 0.173,-0.0259 0.3709,-0.0173 0.5742,0 0.7422,0.0692 1.6301,0.47358 2.7031,1.04883 10.4176,5.57535 13.8379,29.59188 13.8379,41.61133 0,12.54453 -6.2564,38.91418 -23.7715,53.40625 -6.0074,4.9712 -15.0327,11.14528 -20.039,13.73633 -8.7046,4.50598 -8.8344,4.4177 -3.3613,-2.17969 3.1477,-3.79587 10.4877,-17.54583 16.3203,-30.5625 8.6965,-19.40696 10.6102,-28.68567 10.6621,-51.53125 0.052,-19.25463 0.3825,-25.16079 3.0742,-25.5293 z m -521.8613,405.06446 16.3886,0.20312 -18.2129,6.48828 c -44.76128,15.96697 -95.30331,48.52753 -116.27339,74.89649 -5.88495,7.39971 -20.15259,28.94949 -31.69532,47.88086 -39.37256,64.57658 -57.34667,84.22057 -91.04882,99.51367 -15.05738,6.83207 -26.31952,7.74147 -59.53907,4.84766 -34.71701,-3.02418 -34.94929,-4.14559 -4.30859,-20.13868 36.44744,-19.02357 57.47841,-38.21419 99.63086,-90.86328 18.8042,-23.48631 44.37622,-51.81223 56.82031,-62.93359 39.12949,-34.97082 102.23209,-60.46373 148.23832,-59.89453 z m 135.4668,498.02341 a 41.863693,49.255966 22.86502 0 0 21.1191,57.0371 41.863693,49.255966 22.86502 0 0 55.6016,-24.666 46.463332,46.463332 0 0 1 -3.5469,20.7813 46.463332,46.463332 0 0 1 -60.875,24.7675 46.463332,46.463332 0 0 1 -24.752,-60.873 46.463332,46.463332 0 0 1 12.4532,-17.0469 z m -444.75199,4.8125 c 1.23468,-0.01 2.48079,0.048 3.73437,0.1699 20.06846,1.9617 35.09893,22.3882 29.46484,47.3418 -2.15818,9.5592 -16.90191,68.3896 -63.01953,126.1055 -22.28624,27.7987 -48.19093,50.9698 -66.63476,75.0332 -44.45121,57.2188 -49.79205,129.6226 -58.76172,129.9746 -7.90083,0.3106 -25.68812,-73.3015 19.0918,-155.4863 17.71563,-32.1352 41.1513,-59.9134 56.63281,-85.002 31.78055,-51.31 39.46547,-99.6123 41.08984,-106.7949 3.81466,-16.8681 19.88205,-31.2274 38.40235,-31.3418 z m -433.00977,10.1387 c 11.22984,0.1419 23.79603,4.9233 34.88867,15.1387 7.85697,7.2348 57.4447,54.3173 86.57227,132.2558 23.21754,61.9308 29.93058,130.0181 54.92578,175.9981 28.67965,54.5085 75.52847,80.5038 72.61719,86.8926 -1.79331,3.9348 -57.24411,-3.6421 -104.76758,-66.0274 -37.45668,-50.2896 -55.39301,-123.0715 -79.64453,-172.6523 -30.16882,-61.4419 -73.52752,-97.0503 -79.42578,-102.4864 -16.28608,-15.0096 -23.4426,-39.9224 -12.01172,-56.4804 5.72041,-8.2862 15.61586,-12.7806 26.8457,-12.6387 z m 1009.17186,40.2441 a 41.863693,49.255966 22.86502 0 0 21.1192,57.0391 41.863693,49.255966 22.86502 0 0 55.6035,-24.666 46.463332,46.463332 0 0 1 -3.5489,20.7793 46.463332,46.463332 0 0 1 -60.8554,24.7695 46.463332,46.463332 0 0 1 -24.7696,-60.873 46.463332,46.463332 0 0 1 12.4512,-17.0489 z m -697.50584,44.959 c 0.73887,-0.011 1.47785,0.017 2.21484,0.084 5.89576,0.5337 11.63874,3.5275 15.81445,8.5488 8.35082,10.0428 8.18727,23.997 1.11524,31.1055 -1.32351,1.3303 -12.28844,11.1855 -23.33203,24.7344 -18.79651,22.9959 -34.00326,51.6504 -43.52344,85.8613 -8.6477,31.0756 -9.42452,57.7741 -14.27539,58.3398 -4.67415,0.545 -13.61389,-25.7067 -11.81055,-62.3945 1.93648,-39.3962 15.06276,-76.6642 34.02734,-106.9805 11.59844,-18.5116 23.2115,-30.9564 25.2754,-33.0312 4.17223,-4.1934 9.32202,-6.1912 14.49414,-6.2676 z m -153.94727,17.3008 c 7.95178,0.2145 16.13148,4.7073 21.28711,13.4824 3.13438,5.3351 21.56699,38.5475 26.8125,84.7461 3.27408,29.4595 0.90049,59.2714 3.7168,84.1563 4.36472,40.2139 22.05732,71.1199 17.91015,74.1035 -3.69008,2.6546 -31.06265,-22.1367 -44.75586,-68.5449 -8.09321,-27.8134 -10.12389,-58.9758 -15.91601,-83.125 -8.89061,-37.4973 -26.26834,-63.1906 -28.6875,-67.3106 -6.08451,-10.3622 -4.13987,-25.4286 6.26758,-33.2832 3.90443,-2.9467 8.5942,-4.3535 13.36523,-4.2246 z m 978.38871,1.9766 a 41.863693,49.255966 22.86502 0 0 21.1015,57.0214 41.863693,49.255966 22.86502 0 0 55.6192,-24.6503 46.463332,46.463332 0 0 1 -3.5469,20.7812 46.463332,46.463332 0 0 1 -60.875,24.752 46.463332,46.463332 0 0 1 -24.752,-60.8575 46.463332,46.463332 0 0 1 12.4532,-17.0468 z m -232.7168,3.0742 a 41.863693,49.255966 32.657596 0 0 11.1172,59.793 41.863693,49.255966 32.657596 0 0 58.9824,-14.8497 46.463332,46.463332 0 0 1 -7.0293,19.8848 46.463332,46.463332 0 0 1 -64.1856,14.0391 46.463332,46.463332 0 0 1 -14.0566,-64.1836 46.463332,46.463332 0 0 1 15.1719,-14.6836 z m -110.0899,38.2344 a 41.863693,49.255966 32.657596 0 0 11.1016,59.7754 41.863693,49.255966 32.657596 0 0 58.998,-14.834 46.463332,46.463332 0 0 1 -7.0449,19.8691 46.463332,46.463332 0 0 1 -64.1855,14.0566 46.463332,46.463332 0 0 1 -14.0411,-64.2011 46.463332,46.463332 0 0 1 15.1719,-14.666 z m 240.0821,3.0586 a 41.863693,49.255966 32.657596 0 0 11.1015,59.7753 41.863693,49.255966 32.657596 0 0 58.9981,-14.8339 46.463332,46.463332 0 0 1 -7.045,19.8691 46.463332,46.463332 0 0 1 -64.1855,14.0566 46.463332,46.463332 0 0 1 -14.041,-64.2011 46.463332,46.463332 0 0 1 15.1719,-14.666 z m -1020.83989,7.457 c 0.40308,0.01 0.80692,0.028 1.21094,0.061 9.69656,0.7708 19.65452,8.4061 24.68359,20.5625 1.69392,4.0943 10.8224,28.0073 19.91992,59.8946 6.30622,21.8694 13.17681,51.4982 22.74024,73.9668 10.34317,24.6492 24.87963,45.8061 41.14062,63.205 25.80409,27.6237 51.97204,41.5324 50.31446,45.4649 -1.39471,3.309 -31.46923,-1.981 -65.92579,-27.9453 -21.22094,-15.999 -41.29551,-37.9052 -56.73437,-65.2325 -14.35202,-25.6553 -24.57177,-55.548 -32.30469,-75.8925 -11.4057,-29.7405 -21.26614,-51.1393 -22.99414,-55.3164 -6.2031,-14.9948 -2.18504,-31.6692 9.73242,-37.1016 2.60695,-1.1886 5.39522,-1.7232 8.2168,-1.666 z m 408.25195,26.5195 c 6.20977,0.1523 12.21271,2.8483 16.49024,7.7891 8.55367,9.8807 7.79951,24.5618 -0.25391,32.8262 -3.36906,3.4567 -24.75279,22.7668 -44.60351,53.5078 -12.17551,18.7615 -22.12775,39.3068 -31.89844,61.0097 -17.35483,38.6817 -29.7499,72.4278 -34.92188,71.2637 -5.25467,-1.1829 -2.58762,-37.3964 7.85547,-80.4727 5.74688,-23.8314 13.41736,-47.8707 24.33008,-70.9257 18.15949,-38.1614 41.26559,-63.4144 45.26172,-67.5137 5.12137,-5.2538 11.53047,-7.6366 17.74023,-7.4844 z m 505.54104,39.416 a 41.863693,49.255966 32.657596 0 0 11.0996,59.793 41.863693,49.255966 32.657596 0 0 58.998,-14.8516 46.463332,46.463332 0 0 1 -7.0293,19.8868 46.463332,46.463332 0 0 1 -64.2011,14.039 46.463332,46.463332 0 0 1 -14.0391,-64.1855 46.463332,46.463332 0 0 1 15.1719,-14.6817 z m -117.4903,41.6309 a 41.863693,49.255966 36.199399 0 0 7.4004,60.3496 41.863693,49.255966 36.199399 0 0 59.791,-11.168 46.463332,46.463332 0 0 1 -8.2441,19.4121 46.463332,46.463332 0 0 1 -64.9277,10.0528 46.463332,46.463332 0 0 1 -10.0528,-64.9453 46.463332,46.463332 0 0 1 16.0332,-13.7012 z m 239.9297,18.5508 a 41.863693,49.255966 22.038107 0 0 21.9297,56.7168 41.863693,49.255966 22.038107 0 0 55.2481,-25.461 46.463332,46.463332 0 0 1 -3.2442,20.8321 46.463332,46.463332 0 0 1 -60.5019,25.6308 46.463332,46.463332 0 0 1 -25.6309,-60.5019 46.463332,46.463332 0 0 1 12.1992,-17.2168 z m -102.3007,59.4375 a 41.863693,49.255966 36.199399 0 0 7.4003,60.3496 41.863693,49.255966 36.199399 0 0 59.7911,-11.168 46.463332,46.463332 0 0 1 -8.2442,19.4141 46.463332,46.463332 0 0 1 -64.9277,10.0527 46.463332,46.463332 0 0 1 -10.0703,-64.9473 46.463332,46.463332 0 0 1 16.0508,-13.7011 z"
           style="fill:#62e8d9;fill-opacity:1;stroke-width:3.64096904" />
        <path
           style="opacity:1;vector-effect:none;fill:#d4aa00;fill-opacity:1;stroke:none;stroke-width:0.2322457;stroke-linecap:round;stroke-linejoin:round;stroke-miterlimit:4;stroke-dasharray:none;stroke-dashoffset:0;stroke-opacity:1;paint-order:fill markers stroke"
           inkscape:transform-center-x="0.28071976"
           inkscape:transform-center-y="-0.048000941"
           d="m 81.05653,-130.30746 c -0.439657,0.60862 -2.121192,-0.84687 -2.83462,-0.61289 -0.713538,0.23364 -1.619805,2.26445 -2.334504,2.03438 -0.714699,-0.23006 0.481151,-2.23718 0.03818,-2.84339 -0.442979,-0.60621 -2.137984,0.80586 -2.140038,0.055 -0.105733,-0.76111 0.867672,-1.75924 2.226738,-2.27697 0.164852,-0.0584 0.608182,-2.55973 1.321613,-2.79371 0.680993,-0.19547 -0.03138,2.84053 1.457475,2.16303 0.683386,-0.31097 1.809023,-1.14433 2.252002,-0.53811 0.442976,0.60621 -1.625155,1.60912 -1.623103,2.35993 0.0021,0.75082 2.075916,1.84407 1.636261,2.45269 z"
           id="path13831"
           inkscape:connector-curvature="0"
           sodipodi:nodetypes="ccsccccscccc" />
      </g>
    </g>
  </g>
</svg>
