<?xml version="1.0" encoding="utf-8"?>
<!-- Generator: Adobe Illustrator 22.0.1, SVG Export Plug-In . SVG Version: 6.00 Build 0)  -->
<svg version="1.1" id="Calque_1" xmlns="http://www.w3.org/2000/svg" xmlns:xlink="http://www.w3.org/1999/xlink" x="0px" y="0px"
	 viewBox="0 0 432 432" style="enable-background:new 0 0 432 432;" xml:space="preserve">
<style type="text/css">
	.st0{fill:#EE724F;}
	.st1{fill:#FDCB3B;}
	.st2{fill:#36B6B1;}
	.st3{fill:#E73868;}
	.st4{fill:#F28F3F;}
	.st5{fill:#F9C528;}
	.st6{fill:#1B1B1B;}
	.st7{fill:#EA5054;}
	.st8{fill:#816C59;}
	.st9{fill:#C3AE91;}
	.st10{fill:#B4D4E1;}
	.st11{fill:#F9C8BC;}
	.st12{fill:#8FB23C;}
	.st13{fill:#EB5A58;}
	.st14{fill:#343434;}
	.st15{fill:#91CFD0;}
	.st16{fill:#FFE222;}
	.st17{fill:#B9CF48;}
	.st18{fill:#EC6284;}
	.st19{fill:#0D9380;}
	.st20{fill:#9BB581;}
	.st21{fill:#DB9EA0;}
	.st22{fill:#9A4C5F;}
	.st23{fill:#A5B449;}
	.st24{fill:#5BA645;}
	.st25{fill:#7ABA46;}
	.st26{fill:#CDCCCC;}
	.st27{fill:#EAE374;}
	.st28{fill:#10AB92;}
	.st29{fill:#A1D4C9;}
	.st30{fill:#9EB15A;}
	.st31{fill:#508CB3;}
	.st32{fill:#DE9496;}
	.st33{fill:#B3B1AB;}
	.st34{fill:#B1ADA7;}
	.st35{fill:#C1292E;}
	.st36{fill:#FDF0CE;}
	.st37{fill:#00ADA9;}
	.st38{fill:#F5A899;}
	.st39{fill:#8BCDD0;}
	.st40{fill:#00ABAB;}
	.st41{fill:#BBDCEA;}
	.st42{fill:#D49F61;}
	.st43{fill:#EC6150;}
	.st44{fill:#00A8E4;}
	.st45{fill:#95D1D4;}
	.st46{fill:#FAC4A2;}
	.st47{fill:#EB584D;}
	.st48{fill:#24211E;}
	.st49{fill:#FBC47D;}
	.st50{fill:#F28F79;}
	.st51{fill:#639BD3;}
	.st52{fill:#E8424B;}
	.st53{fill:#84B128;}
	.st54{fill:#8D715B;}
	.st55{fill:#C8B498;}
	.st56{fill:#B1DFF6;}
	.st57{fill:#3B3835;}
	.st58{fill:#F8BA00;}
	.st59{fill:#4266AE;}
	.st60{fill:#F69F28;}
	.st61{fill:#020203;}
	.st62{fill:#368DB8;}
</style>
<g>
	<g>
		<g>
			<path class="st37" d="M152.4,177.2c2.8,0,5.5,0.6,8.1,1.6c3.8,1.4,7.5,3.3,11,5.3c4.1,2.4,8.1,4.8,12.2,7.2
				c3.5,2.1,7.2,3.9,11.1,5.1c3.6,1.1,7.3,1.8,11,2.3c7.6,1,15.3,1,22.9,0.8c6.3-0.2,12.6-0.7,18.9-1.1c7.3-0.5,14.5-1.1,21.8-0.9
				c6.1,0.1,12.2,0.8,18,2.5c6.4,1.9,12.1,5.1,17.1,9.6c0.5,0.5,1,0.9,1.4,1.5c0.3,0.4,0.5,0.8,0.7,1.3c0.2,0.6,0,1.2-0.5,1.7
				c-0.5,0.4-1.1,0.5-1.7,0.2c-0.3-0.1-0.6-0.3-0.9-0.5c-5.2-3.6-10.7-6.4-16.7-8.4c-6-2-12.2-3-18.6-3.1c-4.1-0.1-8.3,0-12.4,0.4
				c-2.6,0.2-5.2,0.7-7.8,1.2c-8.8,1.4-17.5,3.8-26.1,6c-6.3,1.6-12.7,3.2-19.1,4.6c-4.7,1-9.4,1.8-14.2,2.1
				c-6.7,0.4-13.3-0.3-19.8-2.3c-2.3-0.7-4.7-1.5-6.9-2.5c-7.3-3.2-12.9-8.4-17-15.2c-1.4-2.4-2.4-4.9-2.8-7.6
				c-0.2-1.9-0.2-3.8,0.5-5.6c1.4-3.8,4.3-5.7,8.2-6.1C151.3,177.1,151.8,177.2,152.4,177.2z"/>
			<path class="st37" d="M177.1,244.3c-3.7,0.1-7.3-0.4-10.8-1.8c-1-0.4-2-0.9-2.9-1.6c-2.4-1.8-3.2-5.2-0.8-8
				c1.4-1.6,3.1-2.6,5-3.3c2.3-0.8,4.6-1.1,7-1.5c4.3-0.6,8.7-0.7,13.1-0.8c5.8-0.1,11.6-0.8,17.4-1.5c4.3-0.6,8.6-1.2,12.8-2.3
				c4.7-1.2,9.1-3.1,13.3-5.5c2.2-1.2,4.4-2.6,6.5-3.8c0.5-0.3,1-0.6,1.5-0.8c0.8-0.4,1.5-0.2,2,0.3c0.4,0.6,0.4,1.3-0.2,2
				c-1.9,2.1-3.7,4.3-5.8,6.2c-5.8,5.1-12.2,9.2-19.2,12.3c-3.6,1.6-7.4,2.9-11.2,4.1c-2.7,0.8-5.3,1.8-7.9,2.6
				c-5.6,1.9-11.4,2.8-17.2,3.1C178.8,244.3,178,244.3,177.1,244.3z"/>
			<path class="st37" d="M112.3,166.2c0-1.7,0.2-3.6,0.9-5.4c2.5-7.3,11-9,16.2-5.3c2.5,1.8,4.3,4.1,5.5,7c1,2.4,1.5,4.9,1.6,7.4
				c0.2,3.1,0.3,6.3,0.4,9.5c0.1,3.8,0.6,7.6,1.6,11.3c0.1,0.4,0.2,0.9,0.4,1.3c3.2,7.8,7.8,14.6,14.8,19.6c0.4,0.3,0.8,0.6,1.2,1
				c0.2,0.2,0.5,0.4,0.7,0.6c0.5,0.6,0.6,1.4,0.3,2c-0.4,0.7-1,0.9-1.7,0.8c-1.2-0.2-2.4-0.3-3.6-0.6c-4.4-1.1-8.4-3-12.1-5.8
				c-5.1-3.8-9.4-8.3-13.3-13.3c-4.2-5.4-7.7-11.3-10.2-17.7C113.3,174.7,112.3,170,112.3,166.2z"/>
			<path class="st37" d="M88.3,187.8c7.7,0,14.2,2.2,20.3,5.6c1.5,0.8,2.9,1.7,4.4,2.5c4,2.3,7.6,5.1,11,8.2
				c1.7,1.6,3.5,3.1,5.2,4.7c3.2,2.8,6.7,5.2,10.4,7.2c0.3,0.1,0.5,0.3,0.8,0.5c0.6,0.4,0.8,1.1,0.6,1.7c-0.2,0.6-0.9,1-1.6,0.9
				c-1.5-0.3-3-0.7-4.5-1.1c-2.3-0.7-4.4-1.7-6.5-3c-2.4-1.4-4.8-2.8-7.2-4.2c-2.4-1.4-5-2.6-7.6-3.6c-5.1-2-10.4-2.4-15.8-1.4
				c-3.4,0.6-6.7,1.7-10,2.8c-2.6,0.8-5.2,1.5-7.8,2.2c-1.8,0.4-3.6,0.6-5.4,0.2c-4.5-0.9-7.2-4.9-6.5-9.4c0.4-2.7,1.7-5,3.5-7
				c1.6-1.9,3.6-3.3,5.9-4.3C81.1,188.7,84.9,187.7,88.3,187.8z"/>
			<path class="st37" d="M279.4,209.9c2.6,0,5.9,0.8,9.1,1.8c4.6,1.5,8.8,3.7,12.4,6.9c1.7,1.5,3.2,3.1,4.2,5.2
				c0.3,0.7,0.6,1.5,0.7,2.3c0.2,1.9-1.3,2.9-3,2.2c-1.7-0.8-3.4-1.5-5.1-2.3c-4-1.9-8.2-2.9-12.7-3c-2.5-0.1-5-0.2-7.4-0.4
				c-1.4-0.1-2.8-0.3-4-1c-1.3-0.7-2.5-1.5-3.6-2.5c-1.5-1.3-1.7-3.1-0.8-4.9c0.6-1.1,1.5-2,2.6-2.7
				C273.8,210.3,275.7,209.9,279.4,209.9z"/>
		</g>
		<g>
			<path class="st58" d="M278.5,188.9c-0.1,0.5-0.1,1.2-0.3,1.9c-0.1,0.6-0.5,1-1.2,1.1c-0.7,0.1-1.1-0.3-1.4-0.8
				c-0.5-0.9-0.6-1.9-0.7-2.9c-0.3-3-0.6-5.9-1.4-8.8c-1-4.2-2.7-8.1-5.1-11.6c-6.8-10.2-15.8-17.4-27.5-21.3c-4-1.3-8.1-2-12.2-2.5
				c-4.4-0.5-8.9-0.5-13.3,0c-9.8,1.1-18.8,4.3-26.5,10.6c-3.9,3.2-7.1,6.9-9.4,11.4c-1.2,2.3-2.3,4.6-3.4,6.9
				c-0.4,0.7-0.8,1.3-1.6,1.7c-0.4,0.2-0.6,0.2-0.7-0.3c-0.2-0.6-0.3-1.1-0.1-1.8c2.1-8.3,6.2-15.4,13-20.8c6-4.8,12.7-8,20.1-9.9
				c6.9-1.7,14-2.3,21.1-1.6c9,0.8,17.5,3.1,25.2,7.9c7.9,4.9,14.4,11.2,19.2,19.2c3.3,5.4,5.2,11.3,5.8,17.6
				C278.2,186,278.3,187.3,278.5,188.9z"/>
			<path class="st58" d="M218.8,130c-0.1,1.7-0.2,3.3-0.3,4.9c0,0.3,0,0.6-0.1,0.9c-0.1,0.7-0.5,1.1-1.1,1.3c-0.6,0.2-1.3,0-1.7-0.5
				c-0.4-0.4-0.7-1-0.9-1.5c-0.5-1.4-1-2.9-1.4-4.4c-0.9-3.6-1.8-7.3-2.6-11c-0.4-1.9-0.4-3.8-0.1-5.8c0.1-0.8,0.4-1.6,0.8-2.2
				c0.9-1.5,2.7-1.6,3.8-0.3c0.5,0.6,0.9,1.3,1.1,2c0.5,1.8,1,3.7,1.4,5.5C218.5,122.7,218.8,126.4,218.8,130z"/>
			<path class="st58" d="M246.8,114.9c-0.2,4.1-0.8,8.1-1.9,12c-0.8,2.7-1.6,5.4-2.5,8.2c-0.4,1.2-1.8,1.9-3,1.3
				c-0.3-0.2-0.6-0.5-0.7-0.9c-0.1-0.4-0.1-0.8-0.1-1.2c0.1-5,0.1-10,0.9-14.9c0.3-1.9,0.8-3.8,1.6-5.6c0.3-0.7,0.7-1.3,1.2-2
				c0.3-0.4,0.6-0.7,1-1c1.2-0.9,2.6-0.5,3.2,0.9c0.1,0.3,0.2,0.7,0.3,1.1C246.7,113.5,246.7,114.2,246.8,114.9z"/>
			<path class="st58" d="M178.6,122.6c0.3,0.1,0.9,0.2,1.4,0.4c0.9,0.5,1.7,1.1,2.5,1.7c0.7,0.7,1.4,1.5,2,2.3
				c3.2,4.3,5.9,8.9,8.1,13.7c0.1,0.2,0.2,0.4,0.3,0.6c0.2,0.6,0.1,1.2-0.4,1.7c-0.5,0.5-1.1,0.6-1.7,0.3c-0.5-0.2-1-0.5-1.4-0.9
				c-4.1-4-8.4-7.9-11.7-12.6c-0.8-1.2-1.6-2.5-1.7-4c-0.1-0.5,0-1,0.1-1.5C176.3,123.3,177.3,122.7,178.6,122.6z"/>
			<path class="st58" d="M277,131.2c-0.2,0.7-0.3,1.4-0.5,2c-0.6,1.2-1.1,2.4-1.9,3.5c-2.3,3.3-5.1,6.1-8.3,8.5
				c-0.7,0.5-1.4,1-2.2,1.4c-1.2,0.7-2.4,0.1-2.5-1.3c0-0.4,0-0.8,0.1-1.2c0.1-0.4,0.2-0.7,0.4-1c1.7-3.6,3.4-7.2,6-10.3
				c1.1-1.3,2.3-2.6,3.7-3.5c0.5-0.3,1-0.6,1.5-0.8c1.8-0.7,3.3,0.2,3.7,2.1C276.9,130.8,276.9,131,277,131.2
				C276.9,131.2,277,131.2,277,131.2z"/>
			<path class="st58" d="M153.1,145.8c0.7,0.2,1.4,0.3,2,0.6c1,0.5,2,1,2.9,1.6c2,1.5,3.9,3,5.7,4.6c1.7,1.5,3.4,3.1,5,4.7
				c0.8,0.7,1.6,1.4,2.4,2.1c0.7,0.6,0.9,1.2,0.5,1.9c-0.3,0.6-1,0.9-1.8,0.6c-0.9-0.3-1.8-0.7-2.6-1.1c-5-2-9.7-4.6-13.7-8.3
				c-0.7-0.6-1.3-1.3-1.9-2c-0.5-0.6-0.8-1.3-0.8-2.1C150.7,146.9,151.6,145.9,153.1,145.8z"/>
			<path class="st58" d="M294.4,159.7c0.8,0.2,1.7,0.2,2.4,0.5c2,0.7,2.5,2.6,1,4.1c-0.6,0.6-1.3,1.1-2.1,1.5
				c-1.6,0.9-3.4,1.4-5.2,1.8c-2.6,0.5-5.2,1-7.9,1.5c-0.5,0.1-1,0.1-1.5,0.1c-0.7,0-1.2-0.3-1.4-1c-0.2-0.6-0.1-1.2,0.4-1.7
				c0.3-0.3,0.6-0.5,1-0.7c1.1-0.7,2.2-1.4,3.2-2.1c2-1.4,4.1-2.6,6.4-3.3C292,160.1,293.2,159.9,294.4,159.7z"/>
			<path class="st58" d="M289.9,182.2c3.2,0,6.4,0.6,9.5,1.4c1.6,0.4,2.9,1.3,4,2.5c0.4,0.4,0.7,1,0.6,1.6c-0.1,0.6-0.3,1.2-0.9,1.4
				c-0.9,0.4-1.8,0.7-2.7,0.4c-1.4-0.4-2.8-0.6-4.2-1c-2.7-0.9-5.6-1.2-8.4-1.8c-0.7-0.2-1.5-0.4-2.2-0.5c-0.2-0.1-0.5-0.1-0.7-0.2
				c-1.2-0.6-1.4-2.1-0.2-2.8c0.5-0.3,1.1-0.5,1.7-0.6C287.5,182.3,288.7,182.3,289.9,182.2z"/>
		</g>
	</g>
	<g>
		<path class="st48" d="M237.9,256.3c-0.4,0.1-0.7,0.2-0.9,0.3c-4.5,1.7-9.2,2.6-14,2.9c-4.9,0.4-9.8,0.2-14.7-0.1
			c-2.3-0.2-4.7-0.2-7-0.4c-3.1-0.3-6.2-0.6-9.2-1c-3.3-0.4-6.6-0.8-9.9-1.2c-3.3-0.3-6.6-0.7-9.9-0.9c-2.6-0.2-5.1-0.2-7.7-0.1
			c-3.6,0.1-7.2,0.3-10.7,0.6c-3.5,0.3-7,1-10.4,1.9c-1.7,0.4-3.5,0.8-5.2,1.1c-0.6,0.1-1.2,0-1.7-0.1c-1.7-0.3-2.5-1.8-1.8-3.5
			c0.4-0.8,0.9-1.5,1.7-2c0.6-0.4,1.2-0.7,1.9-0.9c2.6-0.8,5.2-1.6,7.9-2.3c2.9-0.7,5.9-1,8.9-1c3.6,0,7.3,0.1,10.9,0.2
			c4.9,0.2,9.8,0.8,14.6,1.8c5.4,1,10.9,2.2,16.3,3.1c7.6,1.3,15.2,2,22.9,1.7c5.9-0.2,11.8-1.2,17.3-3.4c0.2-0.1,0.3-0.2,0.5-0.2
			c0.4-0.1,0.6-0.4,0.7-0.9c0.5-4,1-8,1.6-12c0.8-5.3,1.8-10.5,3.5-15.6c0.8-2.2,1.6-4.4,2.9-6.4c0.7-1.1,1.5-2.1,2.4-3
			c0.7-0.7,1.6-1.3,2.5-1.7c2.3-1.1,4.5-0.8,6.5,0.8c2.2,1.7,3.4,4,3.9,6.7c0.6,2.9,0.3,5.7-0.4,8.5c-1.8,7.2-5.2,13.5-10.7,18.6
			c-1.2,1.1-1.8,2.3-2,3.9c-1,6.2-1.8,12.4-2.3,18.6c-0.5,7-0.7,14-0.4,21c0.1,1.8,0.1,3.6,0.1,5.4c0.1,0,0.1,0,0.2,0
			c0.1-0.3,0.2-0.5,0.2-0.8c1.5-5.1,2.9-10.3,4.4-15.4c0.8-2.6,1.8-5.2,3.1-7.7c0.9-1.7,1.9-3.4,3.1-4.8c0.6-0.7,1.3-1.3,2-1.8
			c1.8-1.2,3.9-1,5.4,0.6c0.7,0.8,1.2,1.7,1.6,2.7c0.7,1.8,1,3.7,1.3,5.6c0.7,5.6,0.6,11.2,0.7,16.8c0.1,3.5,0.1,7,0.2,10.6
			c0.2,3.6,0.5,7.3,1.5,10.8c0.2,0.9,0.6,1.8,1,2.7c0.7,1.5,1.7,1.6,2.9,0.4c0.5-0.5,0.9-1,1.2-1.6c0.6-1,1.2-2,1.6-3.1
			c1-2.2,1.9-4.4,2.8-6.6c0.2-0.4,0.2-0.9,0.2-1.3c-0.7-5.1-0.4-10.2,0.8-15.2c0.4-1.9,1.2-3.6,2.3-5.2c0.6-0.8,1.3-1.6,2.2-2.1
			c1.9-1.2,3.8-1,5.4,0.6c1.2,1.2,1.8,2.6,2.1,4.2c0.3,2,0.1,4-0.1,5.9c-0.4,3.7-1,7.3-1,11.1c0,0.9,0.1,1.8,0.2,2.7
			c0.1,0.6,0.3,1.1,0.5,1.6c0.6,1,1.7,1.4,2.8,0.9c0.6-0.3,1.3-0.8,1.8-1.3c2.6-2.7,4.4-5.8,5.3-9.4c1.1-4.6,1.5-9.3,1.4-14
			c0-1-0.1-2.1-0.2-3.1c0-0.5-0.2-1-0.3-1.5c-1.3,0.2-2.5,0.5-3.8,0.6c-4.3,0.6-8.6,0.3-12.7-1.4c-3.2-1.3-5.8-3.3-7.7-6.2
			c-1-1.6-1.7-3.2-1.8-5.1c-0.1-3.2,1.1-5.8,3.4-7.9c3.6-3.1,8.9-3.6,13.2-1.3c1.7,0.9,3.1,2.1,4.3,3.5c3.2,3.4,5.2,7.5,6.5,11.9
			c0.1,0.4,0.2,0.7,0.3,1.1c0,0.1,0.1,0.1,0.2,0.2c1.2-0.6,2.4-1.2,3.3-2.2c0.2-0.2,0.3-0.6,0.3-0.9c0-3.5,0-6.9,0-10.4
			c0.1-6.6,0.4-13.2,1.3-19.7c0.9-7,2.5-13.8,5.1-20.4c1-2.5,2.4-4.8,3.9-6.9c0.5-0.8,1.2-1.5,2-2c2.5-1.9,5.5-1.5,7.5,0.9
			c1.4,1.6,2.1,3.5,2.5,5.6c0.6,3.1,0.7,6.3,0.4,9.4c-0.7,8.4-2.4,16.6-5.5,24.5c-1.7,4.3-3.7,8.3-6,12.3c0,0,0,0.1,0,0.1
			c-1.1,1.2-1.2,2.6-1.2,4.1c0,6.1-0.2,12.2-0.1,18.3c0.1,6.4,0.8,12.8,2.3,19c0.4,1.6,0.9,3.2,1.8,4.6c0.3,0.5,0.7,1,1.1,1.5
			c0.6,0.6,1.1,0.6,1.7,0c0.4-0.4,0.7-0.8,0.9-1.3c0.5-1.2,1.1-2.5,1.5-3.8c0.9-2.6,1.2-5.2,1.5-7.9c0.5-5.4,1.1-10.8,2.4-16.2
			c0.4-1.6,0.9-3.1,1.5-4.6c0.4-0.9,0.9-1.8,1.6-2.6c2-2.2,5-1.8,6.3,0.9c0.7,1.5,1,3.1,1,4.7c0.1,3.4,0,6.7,0,10.1
			c0,4.1-0.1,8.1-0.2,12.2c0,3.1,0.2,6.1,0.6,9.2c0.1,0.6,0.1,1.3,0.2,2.1c0.2-0.2,0.4-0.3,0.5-0.5c0.7-1.4,1.5-2.9,2.2-4.4
			c0.7-1.6,1.3-3.3,1.9-4.9c0.3-0.8,0.4-1.5,0.3-2.3c-0.5-3.8-0.7-7.7-0.5-11.6c0.4-7.8,2.9-14.8,7.7-21c1.8-2.4,4.2-4.1,7-5.1
			c1.8-0.6,3.6-0.7,5.4-0.4c3.6,0.7,5.5,3.2,6.4,6.6c0.3,1,0.2,2.2,0.3,3.3c0,0.1,0,0.2,0,0.3c-0.1,0.9-0.6,1.6-1.3,1.7
			c-0.7,0.2-1.5-0.3-1.9-1.1c-0.3-0.6-0.3-1.2-0.4-1.8c-0.1-0.6-0.1-1.2-0.2-1.7c-0.3-1.1-0.9-1.4-2-1.1c-1,0.3-1.9,0.9-2.3,1.9
			c-0.8,1.9-1.7,3.8-2.4,5.8c-1.7,4.9-2.7,10-3.4,15.1c-0.4,3.4-0.7,6.8-0.3,10.3c0.1,1.4,0.4,2.9,0.7,4.2c0.2,0.9,0.7,1.8,1.3,2.6
			c0.8,1.2,1.7,1.5,3.1,1c1.1-0.4,2-1,2.8-1.8c1.6-1.6,3-3.4,4.1-5.4c0.8-1.4,1.5-2.8,2.3-4.2c0.5-0.8,1-1.6,1.5-2.4
			c0.2-0.3,0.4-0.6,0.7-0.9c0.4-0.4,1-0.5,1.5-0.4c0.6,0.2,1,0.7,1,1.3c0,0.7,0,1.4-0.3,2c-1.4,3.9-3.1,7.6-5.6,10.9
			c-1,1.3-1.9,2.6-3,3.7c-2.5,2.8-5.7,4.1-9.5,3.7c-2.6-0.2-4.9-1.1-6.8-3c-2-2-3.4-4.4-4.4-7c-0.1-0.3-0.2-0.6-0.4-1
			c-0.2,0.4-0.3,0.6-0.4,0.8c-0.7,1.7-1.4,3.5-2.2,5.2c-0.6,1.2-1.4,2.4-2.2,3.5c-0.6,0.7-1.3,1.4-2.1,1.9c-1.6,1.1-3.3,0.9-4.8-0.4
			c-0.9-0.8-1.6-1.8-2.1-2.8c-1.1-2-1.7-4.1-2-6.3c-0.3-1.9-0.4-3.9-0.6-5.8c0-0.3,0-0.5-0.2-0.8c-0.1,0.2-0.2,0.3-0.2,0.5
			c-0.8,2.7-1.8,5.3-3.1,7.8c-0.8,1.4-1.7,2.9-2.6,4.2c-0.5,0.8-1.3,1.4-2.1,1.9c-1.3,0.9-2.6,0.9-4,0c-1-0.6-1.9-1.4-2.6-2.4
			c-1.3-1.8-2.3-3.6-3.1-5.6c-1.4-3.5-2.2-7.2-2.9-10.9c-1.1-5.2-1.8-10.4-2.3-15.7c-0.2-1.8-0.3-3.6-0.4-5.4c0-0.2,0-0.5-0.1-0.9
			c-0.6,0.3-1,0.6-1.5,0.9c-0.5,0.3-1,0.5-1.4,0.8c0.2,1.4,0.4,2.8,0.5,4.2c0.6,8.8-0.8,17.1-5.4,24.7c-1.5,2.5-3.4,4.4-5.7,6.1
			c-1.1,0.8-2.2,1.5-3.5,1.7c-2,0.3-3.8-0.2-5.4-1.3c-2-1.3-3.5-3-4.6-5.2c-0.1-0.2-0.2-0.3-0.3-0.5c0,0-0.1,0-0.1-0.1
			c-0.1,0.3-0.3,0.6-0.4,0.9c-1,2.2-1.9,4.5-3,6.7c-0.6,1.3-1.3,2.5-2.2,3.6c-1.9,2.5-5.2,3.4-8.1,2.3c-2.2-0.8-3.9-2.3-5.3-4.1
			c-1.6-2.2-2.7-4.6-3.3-7.2c-1-3.7-1.4-7.4-1.5-11.2c-0.1-6-0.1-11.9-0.2-17.9c0-2-0.2-4-0.3-6c0-0.2-0.1-0.3-0.3-0.6
			c-0.1,0.3-0.3,0.5-0.4,0.8c-1.4,3-2.4,6-3.3,9.1c-2.1,7-3.5,14.1-4.6,21.3c-0.3,1.8-0.6,3.5-1.3,5.2c-0.4,1-1,1.8-1.9,2.4
			c-1.1,0.9-2.4,0.9-3.5,0c-0.8-0.6-1.3-1.5-1.6-2.4c-0.4-1.6-0.6-3.2-0.9-4.8c-0.1-0.8-0.2-1.6-0.2-2.4c0-0.2-0.1-0.5-0.2-0.9
			c-0.2,0.5-0.3,0.7-0.4,1c-0.7,1.8-1.4,3.5-2.1,5.3c-1,2.2-2.3,4.3-3.9,6.1c-1,1.2-2.2,2.1-3.6,2.8c-2.2,1-4.3,0.7-6.3-0.7
			c-2.6-1.9-4.4-4.4-5.5-7.4c-0.9-2.4-1.4-5-1.7-7.5c-0.6-5.2-0.7-10.4-0.7-15.6c0-2.3-0.1-4.7-0.2-7c0-0.6-0.1-1.1-0.2-1.9
			c-0.5,0.5-0.8,0.8-1.1,1.1c-0.7,1.1-1.3,2.2-1.9,3.4c-1.5,3.6-2.5,7.4-3.3,11.2c-0.9,4.5-1.8,9.1-2.8,13.6
			c-0.2,0.9-0.5,1.8-0.8,2.6c-0.2,0.5-0.5,1-0.8,1.4c-1,1.2-2.5,1.2-3.5,0c-0.5-0.6-1-1.4-1.2-2.1c-0.4-1.5-0.8-3.1-1-4.7
			c-0.7-4.5-0.6-9-0.7-13.5c-0.1-3.2,0-6.5,0-9.7c0-0.1,0-0.3-0.2-0.5c-0.1,0.3-0.3,0.6-0.4,0.9c-1.1,3.1-1.9,6.4-2.6,9.7
			c-0.9,4.4-1.7,8.8-2.6,13.2c-0.5,2.1-1.2,4.2-1.8,6.3c-0.3,0.9-0.8,1.7-1.2,2.5c-0.2,0.4-0.5,0.8-0.9,1.1
			c-1.2,1.1-2.6,1.2-3.9,0.1c-0.9-0.8-1.5-1.8-2-2.8c-0.9-2-1.3-4.1-1.6-6.2c-0.1-0.8-0.2-1.6-0.4-2.5c-0.1,0.2-0.1,0.4-0.2,0.5
			c-0.8,2.8-1.5,5.6-2.4,8.4c-0.4,1.4-1.1,2.7-1.8,4c-0.6,1.2-1.6,2.2-2.7,2.9c-1.8,1.2-3.7,1.2-5.5,0.1c-1.2-0.7-2.2-1.7-3-2.8
			c-1.7-2.2-2.8-4.8-3.8-7.4c-1.2-3.5-1.8-7.1-2-10.7c0-0.2,0-0.5-0.1-0.9c-0.2,0.3-0.3,0.4-0.4,0.6c-0.8,1.6-1.6,3.3-2.4,4.9
			c-1,2.1-2.3,4.1-3.7,6c-0.6,0.8-1.2,1.5-2,2.2c-1.6,1.4-3.5,1.8-5.6,1.2c-1.9-0.6-3.4-1.8-4.7-3.3c-1.6-2-2.7-4.3-3.4-6.8
			c-0.4-1.5-0.7-3-1.1-4.6c-0.1,0.3-0.2,0.4-0.2,0.6c-0.7,4.2-1.4,8.3-2.6,12.4c-0.6,1.9-1.4,3.6-2.6,5.3c-0.8,1.1-1.7,2.1-3,2.7
			c-1.9,1-3.9,1-5.8,0c-1.5-0.8-2.7-1.9-3.8-3.1c-2.3-2.6-3.7-5.6-4.7-8.9c-1-3.5-1.3-7.2-1.1-10.8c0.2-4.4,1-8.6,2.6-12.7
			c0.8-2,1.8-4,3.1-5.7c0.7-0.9,1.5-1.7,2.3-2.4c1.1-1,2.4-1.5,3.9-1.7c1.8-0.3,3.5,0.2,4.8,1.5c1.1,1.1,2,2.3,2.5,3.8
			c0.2,0.6,0.4,1.2,0.6,1.8c0.1,0.2,0.1,0.5,0.1,0.7c0,0.4-0.2,0.7-0.6,0.8c-0.4,0.1-0.7-0.1-0.9-0.4c-0.2-0.3-0.3-0.6-0.5-0.9
			c-0.4-0.7-0.7-1.5-1.2-2.2c-0.4-0.6-0.8-1.1-1.2-1.6c-0.8-0.8-1.4-0.8-2.1,0.1c-0.5,0.5-0.9,1.1-1.2,1.7c-0.5,1.3-0.9,2.6-1.2,3.9
			c-0.8,4-1.3,8.1-1.5,12.2c-0.2,2.9-0.3,5.8,0,8.7c0.2,2.4,0.5,4.8,1.3,7.1c0.3,0.9,0.7,1.9,1.3,2.7c0.8,1.1,1.6,1.2,2.6,0.3
			c0.6-0.5,1.1-1.1,1.5-1.7c1.6-2.3,2.6-4.9,3.5-7.5c1.2-3.5,1.9-7.2,2.6-10.9c0.7-4.1,1.4-8.1,2.2-12.2c0.5-2.3,1.3-4.5,2.3-6.6
			c0.7-1.5,1.6-2.9,2.8-4.2c1.1-1.2,2.3-2.1,3.8-2.6c2.6-0.9,4.7-0.1,6.2,2.2c1.2,1.9,1.7,3.9,1.7,6.1c0.1,4.1-1,7.9-3.4,11.2
			c-1.3,1.7-2.8,3-4.8,4c0,1.2,0,2.3,0,3.5c0.1,2.5,0.5,4.9,1.3,7.3c0.3,0.9,0.7,1.7,1.1,2.5c0.7,1.1,1.4,1.2,2.5,0.6
			c0.4-0.2,0.7-0.5,1-0.8c0.6-0.6,1.3-1.3,1.8-2c1.9-2.8,3.8-5.6,5.6-8.4c0.3-0.5,0.4-1,0.5-1.5c0.4-4.2,1.5-8.2,3.5-11.9
			c0.7-1.4,1.6-2.7,2.8-3.8c1-1,2.1-1.7,3.5-2.2c1.6-0.5,3.1-0.4,4.5,0.5c0.7,0.4,1.3,0.8,1.8,1.4c2.1,2.1,3.1,4.7,3.4,7.6
			c0,0.4,0.2,1-0.3,1.1c-0.6,0.1-0.6-0.5-0.7-0.9c-0.5-1.6-1-3.1-2-4.5c-0.5-0.7-1-1.3-1.7-1.7c-0.9-0.5-1.5-0.3-1.9,0.6
			c-0.7,1.5-1,3.1-1.3,4.7c-0.6,3.5-1.2,6.9-1.4,10.5c-0.3,4.7-0.5,9.3,0.3,13.9c0.3,1.8,0.8,3.5,1.6,5.1c0.2,0.4,0.5,0.9,0.8,1.2
			c0.6,0.7,1,0.7,1.6,0.1c0.6-0.5,1.1-1.1,1.6-1.8c1-1.4,1.7-3,2.3-4.7c1-3,1.4-6.1,1.7-9.3c0.1-1.3,0.2-2.7,0.4-4
			c0.1-0.9,0.4-1.7,0.7-2.6c0.1-0.3,0.3-0.6,0.4-0.8c0.9-1.3,2.5-1.5,3.6-0.3c0.5,0.6,0.9,1.3,1,2c0.3,1.9,0.7,3.7,0.9,5.6
			c0.5,3.5,0.9,6.9,1.3,10.4c0,0.2,0.1,0.4,0.2,0.7c0.4-0.4,0.4-0.7,0.5-1.1c0.9-2.8,1.5-5.7,2.1-8.6c0.8-4.6,1.5-9.3,2.8-13.8
			c0.7-2.5,1.6-4.9,2.6-7.3c0.6-1.6,1.5-3,2.7-4.3c0.6-0.6,1.2-1.2,1.9-1.7c1.4-0.9,3-0.5,4,0.8c0.6,0.8,1,1.7,1.1,2.6
			c0.3,1.9,0.6,3.9,0.7,5.8c0.2,2,0.2,3.9,0.2,5.9c0,0.1,0,0.2,0.2,0.4c0.1-0.3,0.2-0.6,0.3-1c1.3-4,2.8-7.9,4.6-11.7
			c0.6-1.1,1.2-2.3,1.9-3.3c0.8-1.2,1.7-2.2,2.9-2.9c2.5-1.6,5.2-1,6.7,1.5c0.7,1.2,1.1,2.5,1.4,3.8c0.7,2.8,1,5.7,1.1,8.6
			c0.2,4.7,0.4,9.5,0.6,14.2c0.2,4.2,0.5,8.4,1.3,12.5c0.1,0.6,0.3,1.2,0.5,1.8c0.5,1.1,1.1,1.3,2.1,0.5c0.6-0.5,1.2-1.1,1.6-1.7
			c0.8-1.2,1.5-2.4,2.2-3.6c1.6-3.2,3.2-6.4,4.7-9.7c0.6-1.3,0.9-2.7,0.8-4.2c-0.2-8.2-0.5-16.4-0.2-24.5c0.2-3.8,0.3-7.7,0.5-11.5
			C237.9,256.7,237.9,256.5,237.9,256.3z M326.5,216.8c-0.7,0.3-1.2,0.8-1.5,1.4c-0.5,1.1-1,2.3-1.4,3.5c-1.1,3.7-1.9,7.5-2.6,11.4
			c-0.6,3.7-1.1,7.5-1.5,11.3c-0.5,4.3-0.7,8.7-1.1,13c0,0.2,0,0.4,0,0.6c0.6-1,1.1-2,1.6-3.1c3.3-7.6,5.7-15.5,6.9-23.6
			c0.6-3.7,0.8-7.4,0.2-11.2C327.1,219,327,217.9,326.5,216.8z M258.2,218c-0.5,0.7-1,1.2-1.3,1.8c-0.6,1.2-1.2,2.4-1.6,3.6
			c-1.9,5-3.1,10.2-4.2,15.5c-0.3,1.4-0.6,2.9-0.9,4.3c0.3-0.1,0.5-0.4,0.7-0.6c3.8-4.9,6-10.5,7.8-16.4c0.5-1.7,0.8-3.4,0.6-5.2
			C259.2,220,259,219,258.2,218z M301.2,275.6c-0.1-0.3-0.1-0.4-0.2-0.6c-1.1-2.4-2.6-4.5-4.5-6.3c-1-0.9-2.1-1.6-3.3-2.1
			c-0.7-0.3-1.4-0.5-2.1-0.5c-1.8-0.2-3.1,1-3.2,2.8c-0.1,1.2,0.4,2.1,1.2,3c1,0.9,2.1,1.5,3.4,2c2,0.8,4,1.2,6.1,1.5
			C299.4,275.4,300.2,275.5,301.2,275.6z M143.9,289.3c0.3-0.1,0.5-0.2,0.6-0.3c1.3-0.8,2.4-1.8,3.3-3.1c2.2-3.2,3.1-6.8,2.7-10.6
			c-0.1-1.1-0.5-2.2-0.8-3.3c-0.2-0.6-0.7-0.8-1.2-0.4c-0.4,0.3-0.7,0.6-0.9,1c-0.5,1-1,2-1.4,3C144.4,280,144.1,284.6,143.9,289.3z
			"/>
		<path class="st48" d="M103.1,258c0.1,0.2,0.1,0.4,0.2,0.5c2.5,6.1,4,12.4,4.3,19c0.4,7.6-0.6,14.9-3.2,22c-1.7,4.5-3.9,8.7-7,12.4
			c-2.2,2.6-4.8,4.8-7.8,6.4c-5.2,2.7-10.4,2.8-15.6,0.2c-3.1-1.5-5.6-3.7-7.7-6.5c-2.4-3.1-4-6.6-4.9-10.4
			c-1.2-5.5-2-11.1-1.9-16.7c0.1-3,0.5-5.9,1.4-8.8c0.6-1.8,1.3-3.5,2.6-5c1.5-1.6,3.2-2.8,5.4-3c3-0.2,5.4,0.9,7,3.5
			c1.3,2,1.8,4.3,2,6.7c0.4,4,0.2,8-0.1,12c-0.3,4.1-0.7,8.1-0.5,12.2c0.1,1.8,0.4,3.6,1,5.3c1.2,3.1,3.4,4.9,6.6,5.5
			c1.5,0.3,3,0.1,4.4-0.6c2.4-1.1,4.5-2.7,6.1-4.8c3.5-4.2,5.5-9.1,6.7-14.5c1.1-4.9,1.2-9.8,0.9-14.8c-0.3-3.9-0.8-7.7-1.9-11.4
			c-0.6-2.1-1.4-4.2-2.1-6.3c-0.1-0.2-0.2-0.3-0.3-0.6c-0.3,0.2-0.6,0.3-0.9,0.5c-5.2,2.7-10.6,4.7-16.4,5.6
			c-5.4,0.8-10.8,0.8-16.1-1.1c-2.1-0.7-4-1.7-5.7-3.1c-3.9-3.1-5.7-7.3-5.6-12.2c0-2.9,0.8-5.6,2.3-8.1c2.5-4.2,6.1-6.6,10.9-7.4
			c5.9-0.9,11.5,0.3,16.8,2.9c6.7,3.2,11.8,8.2,15.8,14.4c0.7,1.1,1.3,2.1,2,3.3c0.3-0.2,0.6-0.4,0.9-0.6c2.7-2.1,5.6-4.1,8.2-6.2
			c5.8-4.7,11.6-9.6,17.4-14.3c4.4-3.6,9.1-6.6,14.3-8.9c3.9-1.7,7.8-3,12-3.6c2.7-0.4,5.4-0.5,8.1,0.1c0.8,0.2,1.6,0.5,2.3,0.8
			c0.5,0.2,0.9,0.5,1.3,0.9c1.3,1.2,1,2.8-0.6,3.5c-0.5,0.2-1.2,0.3-1.7,0.3c-1.2,0-2.4-0.1-3.6-0.1c-2.4-0.1-4.8-0.2-7.2,0
			c-2.6,0.3-5.1,1-7.6,1.9c-7,2.7-13.3,6.5-19.2,11c-3.3,2.5-6.5,5.1-9.7,7.7C112.2,251.3,107.9,255,103.1,258z M97.2,256.5
			c-0.9-1.7-1.7-3.4-2.8-4.8c-1.7-2.2-3.6-4.2-5.7-6.1c-2-1.8-4.2-3.2-6.7-4.2c-3.7-1.5-7.2-1.1-10.7,0.9c-3.5,2-4.1,6.9-2.6,9.5
			c1.9,3.4,4.7,5.8,8.5,6.9c1.7,0.5,3.5,0.7,5.3,0.8c4.2,0.2,8.4-0.5,12.4-1.9C95.6,257.3,96.3,256.9,97.2,256.5z"/>
		<path class="st48" d="M341.3,266.1c0,2.5-1.2,4.2-3.3,4.8c-1.7,0.5-3.3,0-4.4-1.5c-1.5-2-1.2-5,0.6-6.7c1.9-1.8,4.9-1.5,6.3,0.7
			C341,264.3,341.2,265.3,341.3,266.1z"/>
	</g>
</g>
</svg>
